<svg xmlns="http://www.w3.org/2000/svg" xmlns:xlink="http://www.w3.org/1999/xlink" width="167" zoomAndPan="magnify" viewBox="0 0 125.25 48" height="64" preserveAspectRatio="xMidYMid meet" version="1.0"><defs><g/><clipPath id="7cf1202182"><path d="M 13.640625 0 L 60.660156 0 L 60.660156 3.917969 L 13.640625 3.917969 Z M 13.640625 0 " clip-rule="nonzero"/></clipPath><clipPath id="f7c8ea29d2"><path d="M 12.910156 0 L 16.828125 0 L 16.828125 47.019531 L 12.910156 47.019531 Z M 12.910156 0 " clip-rule="nonzero"/></clipPath><clipPath id="e424c3c033"><path d="M 57.480469 0 L 61.398438 0 L 61.398438 11.753906 L 57.480469 11.753906 Z M 57.480469 0 " clip-rule="nonzero"/></clipPath><clipPath id="99a2091d9a"><path d="M 13.640625 43.835938 L 60.660156 43.835938 L 60.660156 47.019531 L 13.640625 47.019531 Z M 13.640625 43.835938 " clip-rule="nonzero"/></clipPath><clipPath id="1caedf6f7d"><path d="M 57.480469 35.261719 L 61.398438 35.261719 L 61.398438 47.019531 L 57.480469 47.019531 Z M 57.480469 35.261719 " clip-rule="nonzero"/></clipPath></defs><g fill="#ffffff" fill-opacity="1"><g transform="translate(20.743247, 29.398234)"><g><path d="M 6.035156 -10.320312 C 5.882812 -10.320312 5.792969 -10.242188 5.753906 -10.085938 L 4.320312 -3.664062 L 2.890625 -10.085938 C 2.851562 -10.242188 2.761719 -10.320312 2.605469 -10.320312 L 0.902344 -10.320312 C 0.734375 -10.320312 0.644531 -10.230469 0.644531 -10.0625 L 0.644531 -0.257812 C 0.644531 -0.0898438 0.734375 0 0.902344 0 L 2.089844 0 C 2.257812 0 2.347656 -0.0898438 2.347656 -0.257812 L 2.347656 -6.0625 L 2.4375 -6.0625 L 3.714844 -0.230469 C 3.753906 -0.078125 3.84375 0 4 0 L 4.628906 0 C 4.785156 0 4.875 -0.078125 4.914062 -0.230469 L 6.191406 -6.0625 L 6.28125 -6.0625 L 6.28125 -0.257812 C 6.28125 -0.0898438 6.371094 0 6.539062 0 L 7.738281 0 C 7.90625 0 7.996094 -0.0898438 7.996094 -0.257812 L 7.996094 -10.0625 C 7.996094 -10.230469 7.90625 -10.320312 7.738281 -10.320312 Z M 6.035156 -10.320312 "/></g></g></g><g fill="#ffffff" fill-opacity="1"><g transform="translate(29.641149, 29.398234)"><g><path d="M 0.644531 -1.859375 C 0.644531 -0.644531 1.289062 0 2.503906 0 L 3.945312 0 C 5.160156 0 5.804688 -0.644531 5.804688 -1.859375 L 5.804688 -8.460938 C 5.804688 -9.675781 5.160156 -10.320312 3.945312 -10.320312 L 2.503906 -10.320312 C 1.289062 -10.320312 0.644531 -9.675781 0.644531 -8.460938 Z M 2.875 -1.664062 C 2.542969 -1.664062 2.359375 -1.832031 2.359375 -2.179688 L 2.359375 -8.140625 C 2.359375 -8.472656 2.542969 -8.65625 2.875 -8.65625 L 3.625 -8.65625 C 3.960938 -8.65625 4.140625 -8.472656 4.140625 -8.140625 L 4.140625 -2.179688 C 4.140625 -1.832031 3.960938 -1.664062 3.625 -1.664062 Z M 2.875 -1.664062 "/></g></g></g><g fill="#ffffff" fill-opacity="1"><g transform="translate(36.346838, 29.398234)"><g><path d="M 5.148438 -10.320312 C 4.992188 -10.320312 4.902344 -10.242188 4.863281 -10.085938 L 3.496094 -3.171875 L 2.140625 -10.085938 C 2.101562 -10.242188 2.011719 -10.320312 1.859375 -10.320312 L 0.632812 -10.320312 C 0.4375 -10.320312 0.359375 -10.214844 0.398438 -10.035156 L 2.566406 -0.230469 C 2.605469 -0.078125 2.695312 0 2.851562 0 L 4.140625 0 C 4.296875 0 4.386719 -0.078125 4.425781 -0.230469 L 6.605469 -10.035156 C 6.644531 -10.214844 6.566406 -10.320312 6.371094 -10.320312 Z M 5.148438 -10.320312 "/></g></g></g><g fill="#ffffff" fill-opacity="1"><g transform="translate(43.607026, 29.398234)"><g><path d="M 0.851562 -10.320312 C 0.710938 -10.320312 0.644531 -10.242188 0.644531 -10.113281 L 0.644531 -0.207031 C 0.644531 -0.078125 0.710938 0 0.851562 0 L 2.191406 0 C 2.320312 0 2.398438 -0.078125 2.398438 -0.207031 L 2.398438 -10.113281 C 2.398438 -10.242188 2.320312 -10.320312 2.191406 -10.320312 Z M 0.851562 -10.320312 "/></g></g></g><g fill="#ffffff" fill-opacity="1"><g transform="translate(46.908332, 29.398234)"><g><path d="M 5.792969 -10.113281 C 5.792969 -10.242188 5.738281 -10.320312 5.585938 -10.320312 L 0.839844 -10.320312 C 0.722656 -10.320312 0.644531 -10.242188 0.644531 -10.113281 L 0.644531 -0.207031 C 0.644531 -0.078125 0.722656 0 0.839844 0 L 5.585938 0 C 5.738281 0 5.792969 -0.078125 5.792969 -0.207031 L 5.792969 -1.496094 C 5.792969 -1.636719 5.738281 -1.703125 5.585938 -1.703125 L 2.359375 -1.703125 L 2.359375 -4.308594 L 4.824219 -4.308594 C 4.953125 -4.308594 5.03125 -4.386719 5.03125 -4.527344 L 5.03125 -5.804688 C 5.03125 -5.945312 4.953125 -6.023438 4.824219 -6.023438 L 2.359375 -6.023438 L 2.359375 -8.601562 L 5.585938 -8.601562 C 5.738281 -8.601562 5.792969 -8.695312 5.792969 -8.824219 Z M 5.792969 -10.113281 "/></g></g></g><g fill="#ffffff" fill-opacity="1"><g transform="translate(53.601125, 29.398234)"><g/></g></g><g fill="#ffffff" fill-opacity="1"><g transform="translate(57.082965, 29.398234)"><g><path d="M 5.945312 -8.460938 C 5.945312 -9.675781 5.300781 -10.320312 4.089844 -10.320312 L 0.851562 -10.320312 C 0.722656 -10.320312 0.644531 -10.242188 0.644531 -10.113281 L 0.644531 -0.207031 C 0.644531 -0.078125 0.722656 0 0.851562 0 L 2.191406 0 C 2.320312 0 2.398438 -0.078125 2.398438 -0.207031 L 2.398438 -3.457031 L 3.289062 -3.457031 L 4.152344 -0.179688 C 4.179688 -0.0664062 4.242188 0 4.371094 0 L 5.714844 0 C 5.855469 0 5.933594 -0.078125 5.894531 -0.230469 L 5.003906 -3.613281 C 5.625 -3.882812 5.945312 -4.449219 5.945312 -5.3125 Z M 2.398438 -5.160156 L 2.398438 -8.617188 L 3.675781 -8.617188 C 4.011719 -8.617188 4.191406 -8.4375 4.191406 -8.101562 L 4.191406 -5.675781 C 4.191406 -5.339844 4.011719 -5.160156 3.675781 -5.160156 Z M 2.398438 -5.160156 "/></g></g></g><g fill="#ffffff" fill-opacity="1"><g transform="translate(63.930501, 29.398234)"><g><path d="M 5.792969 -10.113281 C 5.792969 -10.242188 5.738281 -10.320312 5.585938 -10.320312 L 0.839844 -10.320312 C 0.722656 -10.320312 0.644531 -10.242188 0.644531 -10.113281 L 0.644531 -0.207031 C 0.644531 -0.078125 0.722656 0 0.839844 0 L 5.585938 0 C 5.738281 0 5.792969 -0.078125 5.792969 -0.207031 L 5.792969 -1.496094 C 5.792969 -1.636719 5.738281 -1.703125 5.585938 -1.703125 L 2.359375 -1.703125 L 2.359375 -4.308594 L 4.824219 -4.308594 C 4.953125 -4.308594 5.03125 -4.386719 5.03125 -4.527344 L 5.03125 -5.804688 C 5.03125 -5.945312 4.953125 -6.023438 4.824219 -6.023438 L 2.359375 -6.023438 L 2.359375 -8.601562 L 5.585938 -8.601562 C 5.738281 -8.601562 5.792969 -8.695312 5.792969 -8.824219 Z M 5.792969 -10.113281 "/></g></g></g><g fill="#ffffff" fill-opacity="1"><g transform="translate(70.623294, 29.398234)"><g><path d="M 7.699219 -10.320312 C 7.546875 -10.320312 7.441406 -10.230469 7.429688 -10.074219 L 6.902344 -4.039062 L 6.835938 -4.039062 L 5.574219 -10.085938 C 5.535156 -10.242188 5.441406 -10.320312 5.289062 -10.320312 L 4.515625 -10.320312 C 4.359375 -10.320312 4.269531 -10.242188 4.230469 -10.085938 L 2.953125 -4.039062 L 2.890625 -4.039062 L 2.386719 -10.074219 C 2.375 -10.230469 2.269531 -10.320312 2.117188 -10.320312 L 0.890625 -10.320312 C 0.722656 -10.320312 0.632812 -10.214844 0.644531 -10.046875 L 1.703125 -0.246094 C 1.714844 -0.078125 1.804688 0 1.972656 0 L 3.261719 0 C 3.417969 0 3.507812 -0.078125 3.546875 -0.21875 L 4.902344 -6.0625 L 6.242188 -0.230469 C 6.28125 -0.078125 6.371094 0 6.527344 0 L 7.789062 0 C 7.957031 0 8.050781 -0.078125 8.0625 -0.246094 L 9.171875 -10.046875 C 9.183594 -10.214844 9.09375 -10.320312 8.925781 -10.320312 Z M 7.699219 -10.320312 "/></g></g></g><g fill="#ffffff" fill-opacity="1"><g transform="translate(80.694678, 29.398234)"><g><path d="M 6.863281 0 C 7.015625 0 7.070312 -0.078125 7.042969 -0.21875 L 4.902344 -10.136719 C 4.875 -10.265625 4.796875 -10.320312 4.683594 -10.320312 L 2.890625 -10.320312 C 2.773438 -10.320312 2.695312 -10.265625 2.671875 -10.136719 L 0.527344 -0.21875 C 0.488281 -0.078125 0.554688 0 0.695312 0 L 2.078125 0 C 2.191406 0 2.257812 -0.0664062 2.28125 -0.179688 L 2.632812 -2.0625 L 4.925781 -2.0625 L 5.289062 -0.179688 C 5.3125 -0.0664062 5.378906 0 5.496094 0 Z M 4.605469 -3.558594 L 2.953125 -3.558594 L 3.78125 -8.0625 Z M 4.605469 -3.558594 "/></g></g></g><g fill="#ffffff" fill-opacity="1"><g transform="translate(88.509373, 29.398234)"><g><path d="M 5.945312 -8.460938 C 5.945312 -9.675781 5.300781 -10.320312 4.089844 -10.320312 L 0.851562 -10.320312 C 0.722656 -10.320312 0.644531 -10.242188 0.644531 -10.113281 L 0.644531 -0.207031 C 0.644531 -0.078125 0.722656 0 0.851562 0 L 2.191406 0 C 2.320312 0 2.398438 -0.078125 2.398438 -0.207031 L 2.398438 -3.457031 L 3.289062 -3.457031 L 4.152344 -0.179688 C 4.179688 -0.0664062 4.242188 0 4.371094 0 L 5.714844 0 C 5.855469 0 5.933594 -0.078125 5.894531 -0.230469 L 5.003906 -3.613281 C 5.625 -3.882812 5.945312 -4.449219 5.945312 -5.3125 Z M 2.398438 -5.160156 L 2.398438 -8.617188 L 3.675781 -8.617188 C 4.011719 -8.617188 4.191406 -8.4375 4.191406 -8.101562 L 4.191406 -5.675781 C 4.191406 -5.339844 4.011719 -5.160156 3.675781 -5.160156 Z M 2.398438 -5.160156 "/></g></g></g><g fill="#ffffff" fill-opacity="1"><g transform="translate(95.356905, 29.398234)"><g><path d="M 0.644531 -0.207031 C 0.644531 -0.0664062 0.710938 0 0.851562 0 L 3.945312 0 C 5.160156 0 5.804688 -0.644531 5.804688 -1.859375 L 5.804688 -8.449219 C 5.804688 -9.660156 5.160156 -10.320312 3.945312 -10.320312 L 0.851562 -10.320312 C 0.710938 -10.320312 0.644531 -10.242188 0.644531 -10.113281 Z M 2.398438 -1.703125 L 2.398438 -8.617188 L 3.585938 -8.617188 C 3.921875 -8.617188 4.101562 -8.4375 4.101562 -8.085938 L 4.101562 -2.21875 C 4.101562 -1.871094 3.921875 -1.703125 3.585938 -1.703125 Z M 2.398438 -1.703125 "/></g></g></g><g fill="#ffffff" fill-opacity="1"><g transform="translate(102.062594, 29.398234)"><g><path d="M 2.503906 -10.320312 C 1.304688 -10.320312 0.644531 -9.675781 0.644531 -8.460938 L 0.644531 -5.417969 C 0.644531 -5.171875 0.761719 -5.019531 0.992188 -4.941406 L 4.050781 -3.933594 L 4.050781 -2.21875 C 4.050781 -1.871094 3.871094 -1.703125 3.535156 -1.703125 L 2.914062 -1.703125 C 2.59375 -1.703125 2.398438 -1.871094 2.398438 -2.21875 L 2.398438 -3.210938 C 2.398438 -3.355469 2.335938 -3.417969 2.191406 -3.417969 L 0.851562 -3.417969 C 0.722656 -3.417969 0.644531 -3.355469 0.644531 -3.210938 L 0.644531 -1.859375 C 0.644531 -0.644531 1.304688 0 2.503906 0 L 3.945312 0 C 5.160156 0 5.804688 -0.644531 5.804688 -1.859375 L 5.804688 -4.835938 C 5.804688 -5.082031 5.6875 -5.222656 5.46875 -5.3125 L 2.398438 -6.320312 L 2.398438 -8.101562 C 2.398438 -8.4375 2.59375 -8.617188 2.914062 -8.617188 L 3.535156 -8.617188 C 3.882812 -8.617188 4.050781 -8.4375 4.050781 -8.101562 L 4.050781 -7.09375 C 4.050781 -6.964844 4.128906 -6.886719 4.257812 -6.886719 L 5.597656 -6.886719 C 5.738281 -6.886719 5.804688 -6.964844 5.804688 -7.09375 L 5.804688 -8.460938 C 5.804688 -9.675781 5.160156 -10.320312 3.945312 -10.320312 Z M 2.503906 -10.320312 "/></g></g></g><g clip-path="url(#7cf1202182)"><path fill="#ffffff" d="M 13.640625 0 L 60.660156 0 L 60.660156 3.671875 L 13.640625 3.671875 Z M 13.640625 0 " fill-opacity="1" fill-rule="nonzero"/></g><g clip-path="url(#f7c8ea29d2)"><path fill="#ffffff" d="M 12.910156 47.019531 L 12.910156 0 L 16.582031 0 L 16.582031 47.019531 Z M 12.910156 47.019531 " fill-opacity="1" fill-rule="nonzero"/></g><g clip-path="url(#e424c3c033)"><path fill="#ffffff" d="M 57.480469 11.753906 L 57.480469 0 L 61.152344 0 L 61.152344 11.753906 Z M 57.480469 11.753906 " fill-opacity="1" fill-rule="nonzero"/></g><g clip-path="url(#99a2091d9a)"><path fill="#ffffff" d="M 13.640625 43.835938 L 60.660156 43.835938 L 60.660156 47.511719 L 13.640625 47.511719 Z M 13.640625 43.835938 " fill-opacity="1" fill-rule="nonzero"/></g><g clip-path="url(#1caedf6f7d)"><path fill="#ffffff" d="M 57.480469 47.019531 L 57.480469 35.261719 L 61.152344 35.261719 L 61.152344 47.019531 Z M 57.480469 47.019531 " fill-opacity="1" fill-rule="nonzero"/></g></svg>