<svg xmlns="http://www.w3.org/2000/svg" xmlns:xlink="http://www.w3.org/1999/xlink" width="816" zoomAndPan="magnify" viewBox="0 0 612 791.999994" height="1056" preserveAspectRatio="xMidYMid meet" version="1.0"><defs><g/></defs><rect x="-61.2" width="734.4" fill="#ffffff" y="-79.199999" height="950.399992" fill-opacity="1"/><rect x="-61.2" width="734.4" fill="#ffffff" y="-79.199999" height="950.399992" fill-opacity="1"/><rect x="-61.2" width="734.4" fill="#ffffff" y="-79.199999" height="950.399992" fill-opacity="1"/><g fill="#000000" fill-opacity="1"><g transform="translate(61.199999, 333.813465)"><g><path d="M 48.136719 -82.285156 C 46.902344 -82.285156 46.183594 -81.667969 45.875 -80.433594 L 34.457031 -29.210938 L 23.039062 -80.433594 C 22.730469 -81.667969 22.011719 -82.285156 20.777344 -82.285156 L 7.199219 -82.285156 C 5.863281 -82.285156 5.144531 -81.566406 5.144531 -80.230469 L 5.144531 -2.058594 C 5.144531 -0.71875 5.863281 0 7.199219 0 L 16.664062 0 C 18 0 18.71875 -0.71875 18.71875 -2.058594 L 18.71875 -48.34375 L 19.441406 -48.34375 L 29.621094 -1.851562 C 29.929688 -0.617188 30.652344 0 31.886719 0 L 36.925781 0 C 38.160156 0 38.878906 -0.617188 39.1875 -1.851562 L 49.371094 -48.34375 L 50.089844 -48.34375 L 50.089844 -2.058594 C 50.089844 -0.71875 50.8125 0 52.148438 0 L 61.714844 0 C 63.050781 0 63.773438 -0.71875 63.773438 -2.058594 L 63.773438 -80.230469 C 63.773438 -81.566406 63.050781 -82.285156 61.714844 -82.285156 Z M 48.136719 -82.285156 "/></g></g></g><g fill="#000000" fill-opacity="1"><g transform="translate(132.171859, 333.813465)"><g><path d="M 5.144531 -14.8125 C 5.144531 -5.144531 10.285156 0 19.953125 0 L 31.472656 0 C 41.144531 0 46.285156 -5.144531 46.285156 -14.8125 L 46.285156 -67.476562 C 46.285156 -77.144531 41.144531 -82.285156 31.472656 -82.285156 L 19.953125 -82.285156 C 10.285156 -82.285156 5.144531 -77.144531 5.144531 -67.476562 Z M 22.9375 -13.269531 C 20.261719 -13.269531 18.824219 -14.605469 18.824219 -17.382812 L 18.824219 -64.902344 C 18.824219 -67.578125 20.261719 -69.015625 22.9375 -69.015625 L 28.902344 -69.015625 C 31.578125 -69.015625 33.015625 -67.578125 33.015625 -64.902344 L 33.015625 -17.382812 C 33.015625 -14.605469 31.578125 -13.269531 28.902344 -13.269531 Z M 22.9375 -13.269531 "/></g></g></g><g fill="#000000" fill-opacity="1"><g transform="translate(185.657897, 333.813465)"><g><path d="M 41.039062 -82.285156 C 39.804688 -82.285156 39.085938 -81.667969 38.777344 -80.433594 L 27.875 -25.304688 L 17.074219 -80.433594 C 16.765625 -81.667969 16.046875 -82.285156 14.8125 -82.285156 L 5.039062 -82.285156 C 3.496094 -82.285156 2.878906 -81.464844 3.1875 -80.023438 L 20.46875 -1.851562 C 20.777344 -0.617188 21.496094 0 22.730469 0 L 33.015625 0 C 34.25 0 34.972656 -0.617188 35.28125 -1.851562 L 52.664062 -80.023438 C 52.972656 -81.464844 52.355469 -82.285156 50.8125 -82.285156 Z M 41.039062 -82.285156 "/></g></g></g><g fill="#000000" fill-opacity="1"><g transform="translate(243.566818, 333.813465)"><g><path d="M 6.789062 -82.285156 C 5.65625 -82.285156 5.144531 -81.667969 5.144531 -80.640625 L 5.144531 -1.644531 C 5.144531 -0.617188 5.65625 0 6.789062 0 L 17.484375 0 C 18.515625 0 19.132812 -0.617188 19.132812 -1.644531 L 19.132812 -80.640625 C 19.132812 -81.667969 18.515625 -82.285156 17.484375 -82.285156 Z M 6.789062 -82.285156 "/></g></g></g><g fill="#000000" fill-opacity="1"><g transform="translate(269.898397, 333.813465)"><g><path d="M 46.183594 -80.640625 C 46.183594 -81.667969 45.773438 -82.285156 44.539062 -82.285156 L 6.6875 -82.285156 C 5.761719 -82.285156 5.144531 -81.667969 5.144531 -80.640625 L 5.144531 -1.644531 C 5.144531 -0.617188 5.761719 0 6.6875 0 L 44.539062 0 C 45.773438 0 46.183594 -0.617188 46.183594 -1.644531 L 46.183594 -11.929688 C 46.183594 -13.0625 45.773438 -13.578125 44.539062 -13.578125 L 18.824219 -13.578125 L 18.824219 -34.355469 L 38.46875 -34.355469 C 39.496094 -34.355469 40.113281 -34.972656 40.113281 -36.101562 L 40.113281 -46.285156 C 40.113281 -47.417969 39.496094 -48.035156 38.46875 -48.035156 L 18.824219 -48.035156 L 18.824219 -68.605469 L 44.539062 -68.605469 C 45.773438 -68.605469 46.183594 -69.324219 46.183594 -70.355469 Z M 46.183594 -80.640625 "/></g></g></g><g fill="#000000" fill-opacity="1"><g transform="translate(61.199999, 441.814045)"><g><path d="M 47.417969 -67.476562 C 47.417969 -77.144531 42.273438 -82.285156 32.605469 -82.285156 L 6.789062 -82.285156 C 5.761719 -82.285156 5.144531 -81.667969 5.144531 -80.640625 L 5.144531 -1.644531 C 5.144531 -0.617188 5.761719 0 6.789062 0 L 17.484375 0 C 18.515625 0 19.132812 -0.617188 19.132812 -1.644531 L 19.132812 -27.566406 L 26.230469 -27.566406 L 33.121094 -1.441406 C 33.324219 -0.515625 33.839844 0 34.867188 0 L 45.566406 0 C 46.699219 0 47.316406 -0.617188 47.007812 -1.851562 L 39.910156 -28.800781 C 44.847656 -30.960938 47.417969 -35.484375 47.417969 -42.378906 Z M 19.132812 -41.144531 L 19.132812 -68.707031 L 29.3125 -68.707031 C 31.988281 -68.707031 33.429688 -67.269531 33.429688 -64.59375 L 33.429688 -45.257812 C 33.429688 -42.582031 31.988281 -41.144531 29.3125 -41.144531 Z M 19.132812 -41.144531 "/></g></g></g><g fill="#000000" fill-opacity="1"><g transform="translate(115.817478, 441.814045)"><g><path d="M 46.183594 -80.640625 C 46.183594 -81.667969 45.773438 -82.285156 44.539062 -82.285156 L 6.6875 -82.285156 C 5.761719 -82.285156 5.144531 -81.667969 5.144531 -80.640625 L 5.144531 -1.644531 C 5.144531 -0.617188 5.761719 0 6.6875 0 L 44.539062 0 C 45.773438 0 46.183594 -0.617188 46.183594 -1.644531 L 46.183594 -11.929688 C 46.183594 -13.0625 45.773438 -13.578125 44.539062 -13.578125 L 18.824219 -13.578125 L 18.824219 -34.355469 L 38.46875 -34.355469 C 39.496094 -34.355469 40.113281 -34.972656 40.113281 -36.101562 L 40.113281 -46.285156 C 40.113281 -47.417969 39.496094 -48.035156 38.46875 -48.035156 L 18.824219 -48.035156 L 18.824219 -68.605469 L 44.539062 -68.605469 C 45.773438 -68.605469 46.183594 -69.324219 46.183594 -70.355469 Z M 46.183594 -80.640625 "/></g></g></g><g fill="#000000" fill-opacity="1"><g transform="translate(169.200658, 441.814045)"><g><path d="M 61.40625 -82.285156 C 60.171875 -82.285156 59.347656 -81.566406 59.246094 -80.332031 L 55.027344 -32.195312 L 54.515625 -32.195312 L 44.433594 -80.433594 C 44.125 -81.667969 43.40625 -82.285156 42.171875 -82.285156 L 36 -82.285156 C 34.765625 -82.285156 34.046875 -81.667969 33.738281 -80.433594 L 23.554688 -32.195312 L 23.039062 -32.195312 L 19.027344 -80.332031 C 18.925781 -81.566406 18.101562 -82.285156 16.867188 -82.285156 L 7.097656 -82.285156 C 5.761719 -82.285156 5.039062 -81.464844 5.144531 -80.125 L 13.578125 -1.953125 C 13.679688 -0.617188 14.398438 0 15.738281 0 L 26.023438 0 C 27.257812 0 27.976562 -0.617188 28.285156 -1.75 L 39.085938 -48.34375 L 49.78125 -1.851562 C 50.089844 -0.617188 50.8125 0 52.046875 0 L 62.125 0 C 63.464844 0 64.183594 -0.617188 64.285156 -1.953125 L 73.132812 -80.125 C 73.234375 -81.464844 72.515625 -82.285156 71.175781 -82.285156 Z M 61.40625 -82.285156 "/></g></g></g><g fill="#000000" fill-opacity="1"><g transform="translate(249.532594, 441.814045)"><g><path d="M 54.71875 0 C 55.953125 0 56.367188 -0.617188 56.160156 -1.75 L 39.085938 -80.847656 C 38.878906 -81.875 38.261719 -82.285156 37.335938 -82.285156 L 23.039062 -82.285156 C 22.113281 -82.285156 21.496094 -81.875 21.292969 -80.847656 L 4.21875 -1.75 C 3.910156 -0.617188 4.421875 0 5.554688 0 L 16.558594 0 C 17.484375 0 18 -0.515625 18.207031 -1.441406 L 20.984375 -16.457031 L 39.292969 -16.457031 L 42.171875 -1.441406 C 42.378906 -0.515625 42.890625 0 43.816406 0 Z M 36.71875 -28.390625 L 23.554688 -28.390625 L 30.136719 -64.285156 Z M 36.71875 -28.390625 "/></g></g></g><g fill="#000000" fill-opacity="1"><g transform="translate(311.8644, 441.814045)"><g><path d="M 47.417969 -67.476562 C 47.417969 -77.144531 42.273438 -82.285156 32.605469 -82.285156 L 6.789062 -82.285156 C 5.761719 -82.285156 5.144531 -81.667969 5.144531 -80.640625 L 5.144531 -1.644531 C 5.144531 -0.617188 5.761719 0 6.789062 0 L 17.484375 0 C 18.515625 0 19.132812 -0.617188 19.132812 -1.644531 L 19.132812 -27.566406 L 26.230469 -27.566406 L 33.121094 -1.441406 C 33.324219 -0.515625 33.839844 0 34.867188 0 L 45.566406 0 C 46.699219 0 47.316406 -0.617188 47.007812 -1.851562 L 39.910156 -28.800781 C 44.847656 -30.960938 47.417969 -35.484375 47.417969 -42.378906 Z M 19.132812 -41.144531 L 19.132812 -68.707031 L 29.3125 -68.707031 C 31.988281 -68.707031 33.429688 -67.269531 33.429688 -64.59375 L 33.429688 -45.257812 C 33.429688 -42.582031 31.988281 -41.144531 29.3125 -41.144531 Z M 19.132812 -41.144531 "/></g></g></g><g fill="#000000" fill-opacity="1"><g transform="translate(366.481878, 441.814045)"><g><path d="M 5.144531 -1.644531 C 5.144531 -0.515625 5.65625 0 6.789062 0 L 31.472656 0 C 41.144531 0 46.285156 -5.144531 46.285156 -14.8125 L 46.285156 -67.371094 C 46.285156 -77.039062 41.144531 -82.285156 31.472656 -82.285156 L 6.789062 -82.285156 C 5.65625 -82.285156 5.144531 -81.667969 5.144531 -80.640625 Z M 19.132812 -13.578125 L 19.132812 -68.707031 L 28.59375 -68.707031 C 31.269531 -68.707031 32.707031 -67.269531 32.707031 -64.492188 L 32.707031 -17.691406 C 32.707031 -14.914062 31.269531 -13.578125 28.59375 -13.578125 Z M 19.132812 -13.578125 "/></g></g></g><g fill="#000000" fill-opacity="1"><g transform="translate(419.967916, 441.814045)"><g><path d="M 19.953125 -82.285156 C 10.386719 -82.285156 5.144531 -77.144531 5.144531 -67.476562 L 5.144531 -43.199219 C 5.144531 -41.246094 6.070312 -40.011719 7.921875 -39.394531 L 32.296875 -31.371094 L 32.296875 -17.691406 C 32.296875 -14.914062 30.855469 -13.578125 28.183594 -13.578125 L 23.246094 -13.578125 C 20.675781 -13.578125 19.132812 -14.914062 19.132812 -17.691406 L 19.132812 -25.613281 C 19.132812 -26.742188 18.617188 -27.257812 17.484375 -27.257812 L 6.789062 -27.257812 C 5.761719 -27.257812 5.144531 -26.742188 5.144531 -25.613281 L 5.144531 -14.8125 C 5.144531 -5.144531 10.386719 0 19.953125 0 L 31.472656 0 C 41.144531 0 46.285156 -5.144531 46.285156 -14.8125 L 46.285156 -38.570312 C 46.285156 -40.527344 45.359375 -41.65625 43.613281 -42.378906 L 19.132812 -50.398438 L 19.132812 -64.59375 C 19.132812 -67.269531 20.675781 -68.707031 23.246094 -68.707031 L 28.183594 -68.707031 C 30.960938 -68.707031 32.296875 -67.269531 32.296875 -64.59375 L 32.296875 -56.570312 C 32.296875 -55.542969 32.914062 -54.925781 33.941406 -54.925781 L 44.640625 -54.925781 C 45.773438 -54.925781 46.285156 -55.542969 46.285156 -56.570312 L 46.285156 -67.476562 C 46.285156 -77.144531 41.144531 -82.285156 31.472656 -82.285156 Z M 19.953125 -82.285156 "/></g></g></g><g fill="#000000" fill-opacity="1"><g transform="translate(61.199999, 494.069251)"><g><path d="M 17.859375 -18.90625 L 6.6875 -18.90625 L 6.6875 -12.484375 L 16.8125 -12.484375 L 16.8125 -9.140625 L 6.6875 -9.140625 L 6.6875 0 L 2.921875 0 L 2.921875 -22.28125 L 17.890625 -22.28125 Z M 17.859375 -18.90625 "/></g></g></g><g fill="#000000" fill-opacity="1"><g transform="translate(83.321588, 494.069251)"><g><path d="M 17.3125 -5.03125 L 6.078125 -5.03125 L 3.953125 0 L 0.03125 0 L 9.859375 -22.28125 L 13.71875 -22.28125 L 23.453125 0 L 19.453125 0 Z M 15.875 -8.375 L 11.6875 -18.265625 L 7.484375 -8.375 Z M 15.875 -8.375 "/></g></g></g><g fill="#000000" fill-opacity="1"><g transform="translate(110.631161, 494.069251)"><g><path d="M 6.6875 -3.40625 L 16.328125 -3.40625 L 16.328125 0 L 2.921875 0 L 2.921875 -22.28125 L 6.6875 -22.28125 Z M 6.6875 -3.40625 "/></g></g></g><g fill="#000000" fill-opacity="1"><g transform="translate(131.447791, 494.069251)"><g><path d="M 6.6875 -3.40625 L 16.328125 -3.40625 L 16.328125 0 L 2.921875 0 L 2.921875 -22.28125 L 6.6875 -22.28125 Z M 6.6875 -3.40625 "/></g></g></g><g fill="#000000" fill-opacity="1"><g transform="translate(152.264421, 494.069251)"><g><path d="M 2.921875 -22.28125 L 12.609375 -22.28125 C 14.921875 -22.28125 16.742188 -21.785156 18.078125 -20.796875 C 19.410156 -19.804688 20.078125 -18.441406 20.078125 -16.703125 C 20.078125 -15.453125 19.726562 -14.382812 19.03125 -13.5 C 18.332031 -12.625 17.378906 -12.039062 16.171875 -11.75 C 17.648438 -11.488281 18.8125 -10.859375 19.65625 -9.859375 C 20.507812 -8.867188 20.9375 -7.617188 20.9375 -6.109375 C 20.9375 -4.203125 20.210938 -2.707031 18.765625 -1.625 C 17.328125 -0.539062 15.347656 0 12.828125 0 L 2.921875 0 Z M 6.6875 -18.9375 L 6.6875 -13.046875 L 12.40625 -13.046875 C 13.601562 -13.046875 14.539062 -13.3125 15.21875 -13.84375 C 15.894531 -14.375 16.234375 -15.101562 16.234375 -16.03125 C 16.234375 -16.96875 15.898438 -17.6875 15.234375 -18.1875 C 14.566406 -18.6875 13.625 -18.9375 12.40625 -18.9375 Z M 6.6875 -9.734375 L 6.6875 -3.34375 L 12.40625 -3.34375 C 13.894531 -3.34375 15.046875 -3.625 15.859375 -4.1875 C 16.679688 -4.75 17.09375 -5.550781 17.09375 -6.59375 C 17.09375 -7.5625 16.675781 -8.328125 15.84375 -8.890625 C 15.019531 -9.453125 13.875 -9.734375 12.40625 -9.734375 Z M 6.6875 -9.734375 "/></g></g></g><g fill="#000000" fill-opacity="1"><g transform="translate(178.555493, 494.069251)"><g><path d="M 17.3125 -5.03125 L 6.078125 -5.03125 L 3.953125 0 L 0.03125 0 L 9.859375 -22.28125 L 13.71875 -22.28125 L 23.453125 0 L 19.453125 0 Z M 15.875 -8.375 L 11.6875 -18.265625 L 7.484375 -8.375 Z M 15.875 -8.375 "/></g></g></g><g fill="#000000" fill-opacity="1"><g transform="translate(205.865066, 494.069251)"><g><path d="M 12.796875 -22.375 C 14.367188 -22.375 15.898438 -22.070312 17.390625 -21.46875 C 18.890625 -20.863281 20.179688 -20.019531 21.265625 -18.9375 L 19.0625 -16.203125 C 18.257812 -17.066406 17.304688 -17.753906 16.203125 -18.265625 C 15.097656 -18.773438 13.984375 -19.03125 12.859375 -19.03125 C 10.628906 -19.03125 8.742188 -18.269531 7.203125 -16.75 C 5.671875 -15.238281 4.90625 -13.390625 4.90625 -11.203125 C 4.90625 -8.992188 5.671875 -7.128906 7.203125 -5.609375 C 8.742188 -4.097656 10.628906 -3.34375 12.859375 -3.34375 C 15.171875 -3.34375 17.238281 -4.222656 19.0625 -5.984375 L 21.296875 -3.5 C 20.148438 -2.375 18.8125 -1.484375 17.28125 -0.828125 C 15.75 -0.171875 14.210938 0.15625 12.671875 0.15625 C 9.398438 0.15625 6.648438 -0.925781 4.421875 -3.09375 C 2.191406 -5.269531 1.078125 -7.960938 1.078125 -11.171875 C 1.078125 -14.335938 2.207031 -16.992188 4.46875 -19.140625 C 6.726562 -21.296875 9.503906 -22.375 12.796875 -22.375 Z M 12.796875 -22.375 "/></g></g></g><g fill="#000000" fill-opacity="1"><g transform="translate(231.869692, 494.069251)"><g><path d="M 17.796875 0 L 10.46875 -9.828125 L 6.6875 -5.671875 L 6.6875 0 L 2.921875 0 L 2.921875 -22.28125 L 6.6875 -22.28125 L 6.6875 -10.765625 L 17.3125 -22.28125 L 21.734375 -22.28125 L 13.109375 -12.765625 L 22.3125 0 Z M 17.796875 0 "/></g></g></g><g fill="#000000" fill-opacity="1"><g transform="translate(258.54271, 494.069251)"><g/></g></g><g fill="#000000" fill-opacity="1"><g transform="translate(270.574776, 494.069251)"><g><path d="M 6.6875 0 L 2.921875 0 L 2.921875 -22.28125 L 6.6875 -22.28125 Z M 6.6875 0 "/></g></g></g><g fill="#000000" fill-opacity="1"><g transform="translate(284.007278, 494.069251)"><g><path d="M 26.484375 0 L 23.015625 0 L 22.984375 -16.640625 L 15.953125 -2.328125 L 13.5 -2.328125 L 6.46875 -16.640625 L 6.46875 0 L 2.921875 0 L 2.921875 -22.28125 L 7.390625 -22.28125 L 14.734375 -7.484375 L 22.0625 -22.28125 L 26.484375 -22.28125 Z M 26.484375 0 "/></g></g></g><g fill="#000000" fill-opacity="1"><g transform="translate(317.268728, 494.069251)"><g><path d="M 17.3125 -5.03125 L 6.078125 -5.03125 L 3.953125 0 L 0.03125 0 L 9.859375 -22.28125 L 13.71875 -22.28125 L 23.453125 0 L 19.453125 0 Z M 15.875 -8.375 L 11.6875 -18.265625 L 7.484375 -8.375 Z M 15.875 -8.375 "/></g></g></g><g fill="#000000" fill-opacity="1"><g transform="translate(344.578312, 494.069251)"><g><path d="M 18.171875 -10.953125 L 21.453125 -10.953125 L 21.453125 -2.734375 C 20.304688 -1.867188 18.953125 -1.171875 17.390625 -0.640625 C 15.835938 -0.109375 14.304688 0.15625 12.796875 0.15625 C 9.503906 0.15625 6.726562 -0.925781 4.46875 -3.09375 C 2.207031 -5.269531 1.078125 -7.953125 1.078125 -11.140625 C 1.078125 -14.328125 2.222656 -16.992188 4.515625 -19.140625 C 6.804688 -21.296875 9.640625 -22.375 13.015625 -22.375 C 14.585938 -22.375 16.128906 -22.09375 17.640625 -21.53125 C 19.160156 -20.96875 20.472656 -20.207031 21.578125 -19.25 L 19.453125 -16.484375 C 17.617188 -18.179688 15.472656 -19.03125 13.015625 -19.03125 C 10.742188 -19.03125 8.820312 -18.265625 7.25 -16.734375 C 5.6875 -15.210938 4.90625 -13.347656 4.90625 -11.140625 C 4.90625 -8.910156 5.691406 -7.03125 7.265625 -5.5 C 8.847656 -3.976562 10.773438 -3.21875 13.046875 -3.21875 C 14.765625 -3.21875 16.472656 -3.726562 18.171875 -4.75 Z M 18.171875 -10.953125 "/></g></g></g><g fill="#000000" fill-opacity="1"><g transform="translate(372.237994, 494.069251)"><g><path d="M 18.84375 -18.90625 L 6.6875 -18.90625 L 6.6875 -12.890625 L 17.5625 -12.890625 L 17.5625 -9.515625 L 6.6875 -9.515625 L 6.6875 -3.375 L 19.21875 -3.375 L 19.21875 0 L 2.921875 0 L 2.921875 -22.28125 L 18.84375 -22.28125 Z M 18.84375 -18.90625 "/></g></g></g><g fill="#000000" fill-opacity="1"><g transform="translate(61.199999, 545.608972)"><g><path d="M 8.09375 -9.15625 L 2.734375 -9.15625 L 2.734375 -5.53125 L 7.53125 -5.53125 L 7.53125 -4.40625 L 2.734375 -4.40625 L 2.734375 0 L 1.5625 0 L 1.5625 -10.28125 L 8.09375 -10.28125 Z M 8.09375 -9.15625 "/></g></g></g><g fill="#000000" fill-opacity="1"><g transform="translate(71.235967, 545.608972)"><g><path d="M 8.0625 -2.59375 L 2.453125 -2.59375 L 1.3125 0 L 0.0625 0 L 4.671875 -10.28125 L 5.890625 -10.28125 L 10.484375 0 L 9.203125 0 Z M 7.5625 -3.734375 L 5.25 -8.9375 L 2.953125 -3.734375 Z M 7.5625 -3.734375 "/></g></g></g><g fill="#000000" fill-opacity="1"><g transform="translate(83.549492, 545.608972)"><g><path d="M 2.734375 -1.109375 L 7.234375 -1.109375 L 7.234375 0 L 1.5625 0 L 1.5625 -10.28125 L 2.734375 -10.28125 Z M 2.734375 -1.109375 "/></g></g></g><g fill="#000000" fill-opacity="1"><g transform="translate(92.909538, 545.608972)"><g><path d="M 2.734375 -1.109375 L 7.234375 -1.109375 L 7.234375 0 L 1.5625 0 L 1.5625 -10.28125 L 2.734375 -10.28125 Z M 2.734375 -1.109375 "/></g></g></g><g fill="#000000" fill-opacity="1"><g transform="translate(102.269587, 545.608972)"><g><path d="M 1.5625 -10.28125 L 5.890625 -10.28125 C 6.929688 -10.28125 7.742188 -10.050781 8.328125 -9.59375 C 8.910156 -9.144531 9.203125 -8.519531 9.203125 -7.71875 C 9.203125 -7.101562 9.035156 -6.59375 8.703125 -6.1875 C 8.367188 -5.78125 7.90625 -5.515625 7.3125 -5.390625 C 8.0625 -5.285156 8.640625 -5 9.046875 -4.53125 C 9.460938 -4.070312 9.671875 -3.492188 9.671875 -2.796875 C 9.671875 -1.921875 9.34375 -1.234375 8.6875 -0.734375 C 8.03125 -0.242188 7.125 0 5.96875 0 L 1.5625 0 Z M 2.734375 -9.15625 L 2.734375 -5.84375 L 5.828125 -5.84375 C 6.523438 -5.84375 7.0625 -5.988281 7.4375 -6.28125 C 7.820312 -6.570312 8.015625 -6.984375 8.015625 -7.515625 C 8.015625 -8.035156 7.820312 -8.4375 7.4375 -8.71875 C 7.0625 -9.007812 6.523438 -9.15625 5.828125 -9.15625 Z M 2.734375 -4.734375 L 2.734375 -1.109375 L 5.828125 -1.109375 C 6.671875 -1.109375 7.320312 -1.269531 7.78125 -1.59375 C 8.238281 -1.914062 8.46875 -2.367188 8.46875 -2.953125 C 8.46875 -3.515625 8.234375 -3.953125 7.765625 -4.265625 C 7.304688 -4.578125 6.660156 -4.734375 5.828125 -4.734375 Z M 2.734375 -4.734375 "/></g></g></g><g fill="#000000" fill-opacity="1"><g transform="translate(114.55373, 545.608972)"><g><path d="M 8.0625 -2.59375 L 2.453125 -2.59375 L 1.3125 0 L 0.0625 0 L 4.671875 -10.28125 L 5.890625 -10.28125 L 10.484375 0 L 9.203125 0 Z M 7.5625 -3.734375 L 5.25 -8.9375 L 2.953125 -3.734375 Z M 7.5625 -3.734375 "/></g></g></g><g fill="#000000" fill-opacity="1"><g transform="translate(126.867256, 545.608972)"><g><path d="M 5.953125 -10.3125 C 6.640625 -10.3125 7.3125 -10.175781 7.96875 -9.90625 C 8.625 -9.644531 9.203125 -9.28125 9.703125 -8.8125 L 9 -7.921875 C 8.15625 -8.773438 7.144531 -9.203125 5.96875 -9.203125 C 4.800781 -9.203125 3.8125 -8.804688 3 -8.015625 C 2.1875 -7.234375 1.78125 -6.28125 1.78125 -5.15625 C 1.78125 -4.03125 2.1875 -3.070312 3 -2.28125 C 3.820312 -1.5 4.8125 -1.109375 5.96875 -1.109375 C 7.125 -1.109375 8.132812 -1.515625 9 -2.328125 L 9.71875 -1.53125 C 8.59375 -0.46875 7.320312 0.0625 5.90625 0.0625 C 4.425781 0.0625 3.171875 -0.441406 2.140625 -1.453125 C 1.109375 -2.460938 0.59375 -3.695312 0.59375 -5.15625 C 0.59375 -6.59375 1.113281 -7.8125 2.15625 -8.8125 C 3.195312 -9.8125 4.460938 -10.3125 5.953125 -10.3125 Z M 5.953125 -10.3125 "/></g></g></g><g fill="#000000" fill-opacity="1"><g transform="translate(138.91629, 545.608972)"><g><path d="M 8.515625 0 L 4.734375 -4.875 L 2.734375 -2.6875 L 2.734375 0 L 1.5625 0 L 1.5625 -10.28125 L 2.734375 -10.28125 L 2.734375 -4.359375 L 8.25 -10.28125 L 9.65625 -10.28125 L 5.578125 -5.8125 L 9.953125 0 Z M 8.515625 0 "/></g></g></g><g fill="#000000" fill-opacity="1"><g transform="translate(150.950627, 545.608972)"><g/></g></g><g fill="#000000" fill-opacity="1"><g transform="translate(156.740044, 545.608972)"><g><path d="M 2.734375 0 L 1.5625 0 L 1.5625 -10.28125 L 2.734375 -10.28125 Z M 2.734375 0 "/></g></g></g><g fill="#000000" fill-opacity="1"><g transform="translate(162.793947, 545.608972)"><g><path d="M 11.953125 0 L 10.875 0 L 10.859375 -8.46875 L 7.109375 -1.09375 L 6.40625 -1.09375 L 2.671875 -8.46875 L 2.671875 0 L 1.5625 0 L 1.5625 -10.28125 L 3.015625 -10.28125 L 6.765625 -2.875 L 10.515625 -10.28125 L 11.953125 -10.28125 Z M 11.953125 0 "/></g></g></g><g fill="#000000" fill-opacity="1"><g transform="translate(178.090339, 545.608972)"><g><path d="M 8.71875 -5.015625 L 9.765625 -5.015625 L 9.765625 -1.296875 C 9.242188 -0.878906 8.644531 -0.546875 7.96875 -0.296875 C 7.300781 -0.0546875 6.628906 0.0625 5.953125 0.0625 C 4.460938 0.0625 3.195312 -0.441406 2.15625 -1.453125 C 1.113281 -2.460938 0.59375 -3.691406 0.59375 -5.140625 C 0.59375 -6.585938 1.113281 -7.8125 2.15625 -8.8125 C 3.207031 -9.8125 4.488281 -10.3125 6 -10.3125 C 7.46875 -10.3125 8.734375 -9.84375 9.796875 -8.90625 L 9.125 -8.015625 C 8.226562 -8.804688 7.1875 -9.203125 6 -9.203125 C 4.832031 -9.203125 3.835938 -8.804688 3.015625 -8.015625 C 2.191406 -7.222656 1.78125 -6.265625 1.78125 -5.140625 C 1.78125 -4.003906 2.191406 -3.039062 3.015625 -2.25 C 3.847656 -1.457031 4.847656 -1.0625 6.015625 -1.0625 C 6.984375 -1.0625 7.882812 -1.347656 8.71875 -1.921875 Z M 8.71875 -5.015625 "/></g></g></g></svg>