<svg xmlns="http://www.w3.org/2000/svg" xmlns:xlink="http://www.w3.org/1999/xlink" width="350" zoomAndPan="magnify" viewBox="0 0 262.5 225" height="300" preserveAspectRatio="xMidYMid meet" version="1.0"><defs><clipPath id="85d1bfed32"><path d="M 0 11.324219 L 261 11.324219 L 261 213.824219 L 0 213.824219 Z M 0 11.324219 " clip-rule="nonzero"/></clipPath></defs><g clip-path="url(#85d1bfed32)"><path fill="#000000" d="M 235.421875 85.859375 C 240.398438 86.65625 244.84375 81.335938 248.664062 81.011719 C 249.96875 82.402344 248.140625 83.105469 247.78125 84.539062 C 246.648438 89.070312 247.515625 96.660156 247.78125 103.050781 C 247.988281 108.078125 247.589844 110.234375 249.546875 114.953125 C 248.699219 116.054688 250.21875 116.765625 249.105469 117.597656 C 251.40625 122.980469 256.179688 119.527344 260.582031 122.007812 C 262.332031 129.082031 252.390625 142.070312 249.988281 148.011719 C 249.464844 149.308594 249.929688 150.285156 249.546875 151.097656 C 248.503906 153.316406 246.070312 155.257812 245.132812 157.710938 C 244.171875 160.21875 243.765625 162.421875 242.484375 164.761719 C 241.027344 167.421875 238.875 169.785156 237.628906 172.257812 C 236.894531 173.710938 237.035156 175.75 236.304688 177.105469 C 235.757812 178.117188 234.503906 178.597656 234.097656 179.308594 C 233.691406 180.019531 234.132812 181.484375 233.65625 182.394531 C 231.820312 185.902344 229.851562 189.355469 227.917969 193.414062 C 225.421875 198.660156 221 212.273438 215.117188 213.25 C 211.578125 213.835938 208.824219 212.871094 204.523438 212.367188 C 188.152344 210.464844 165.757812 207.609375 143.609375 205.316406 C 137.222656 204.65625 127.859375 202.328125 122.421875 203.554688 C 117.648438 204.628906 113.753906 211.003906 108.296875 211.046875 C 102.199219 211.09375 96.363281 207.980469 92.40625 201.347656 C 87.179688 201.65625 83.117188 201.707031 78.28125 202.671875 C 75.917969 203.144531 72.339844 202.394531 71.660156 202.671875 C 71.164062 202.875 70.613281 204.394531 70.335938 204.433594 C 70.09375 204.46875 66.40625 201.921875 64.15625 204.875 C 62.734375 204.289062 57.25 204.265625 56.210938 206.636719 C 52.648438 204.046875 44.621094 205.324219 42.96875 207.078125 C 33.019531 206.296875 26.519531 208.335938 11.1875 208.84375 C 7.324219 208.96875 5.292969 210.265625 0.59375 207.078125 C 0.832031 205.847656 0.398438 205.082031 0.152344 203.113281 C 5.390625 200.777344 6.234375 191.582031 12.511719 190.769531 C 8.75 196.351562 14.652344 194.011719 19.574219 195.175781 C 16.507812 198.53125 13.625 195.945312 11.1875 199.144531 C 11.269531 200.382812 12.628906 200.351562 12.953125 201.347656 C 25.679688 198.996094 34.191406 200.328125 47.824219 198.703125 C 64.070312 196.769531 77.34375 194.535156 93.289062 195.175781 C 95.214844 197.285156 94.847656 200.753906 96.820312 203.113281 C 98.25 204.820312 102.230469 207.257812 104.324219 207.519531 C 112.4375 208.539062 116.050781 202.804688 118.007812 196.941406 C 118.519531 197.011719 118.792969 196.84375 118.890625 196.5 C 123.457031 196.695312 125.910156 197.710938 129.042969 197.824219 C 130.402344 197.871094 132.105469 197.394531 134.339844 197.824219 C 136.972656 198.328125 138.980469 198.539062 141.84375 198.703125 C 149.773438 199.15625 158.054688 201.15625 166.121094 202.230469 C 181.71875 204.304688 196.359375 204.894531 208.496094 206.636719 C 207.839844 197.148438 206.855469 189.429688 205.847656 181.511719 C 205.03125 175.117188 206.167969 175.253906 200.550781 177.105469 C 196.296875 178.507812 191.457031 178.617188 188.191406 179.75 C 178.292969 178.445312 167.601562 177.695312 155.085938 174.460938 C 151.789062 173.609375 149.035156 171.773438 145.816406 171.375 C 134.566406 169.984375 121.003906 169.058594 111.386719 177.105469 C 109.660156 178.550781 108.367188 180.460938 106.089844 181.511719 C 81.582031 162.09375 62.183594 175.882812 26.195312 172.699219 C 23.621094 172.46875 21.882812 172.371094 18.25 171.816406 C 15.273438 171.359375 13.574219 170.125 11.1875 173.578125 C 11.757812 174.773438 13.382812 174.914062 15.160156 174.902344 C 15.394531 175.832031 20.171875 176.558594 22.222656 176.664062 C 33.820312 177.253906 41.292969 177.132812 58.417969 175.78125 C 68.855469 174.960938 81.792969 174.320312 90.640625 178.425781 C 92.089844 179.101562 93.242188 179.78125 93.730469 181.511719 C 91.070312 182.402344 88.691406 179.613281 85.34375 178.867188 C 73.464844 176.230469 59.25 177.839844 46.941406 178.867188 C 39.683594 179.476562 31.777344 179.042969 25.3125 178.867188 C 24.40625 178.84375 22.476562 179.023438 21.339844 178.867188 C 16.296875 178.179688 12.230469 173.726562 10.746094 179.75 C 15.851562 182.191406 19.511719 181.898438 27.078125 182.394531 C 41.636719 183.347656 54.578125 180.375 67.6875 180.191406 C 73.242188 180.113281 78.449219 181.234375 84.460938 182.835938 C 85.96875 183.238281 88.644531 182.171875 88.875 185.039062 C 72.894531 180.675781 63.222656 184.144531 41.203125 185.039062 C 36.546875 185.230469 32.300781 185.15625 27.960938 185.039062 C 20.671875 184.84375 14.535156 181.167969 11.628906 186.800781 C 15.285156 189.601562 20.054688 188.535156 24.429688 188.566406 C 33.804688 188.632812 42.667969 189.148438 52.238281 188.125 C 62.121094 187.066406 69.785156 185.171875 78.28125 186.363281 C 80.4375 188.488281 82.449219 186.046875 83.578125 189.007812 C 58.246094 187.457031 42.359375 193.488281 21.78125 191.652344 C 15.253906 191.070312 11.839844 189.050781 7.65625 187.683594 C 7.078125 184.453125 11.101562 184.5 10.746094 182.835938 C 9.863281 181.195312 9.425781 181.832031 7.214844 181.511719 C 6.039062 179.183594 8.382812 177.730469 10.304688 176.222656 C 9.789062 174.679688 8.085938 174.328125 7.214844 173.136719 C 8.011719 171.875 8.875 170.679688 9.863281 169.613281 C 8.082031 167.71875 5.414062 166.710938 2.800781 165.644531 C 4.394531 163.199219 7.488281 162.902344 9.863281 161.238281 C 13.804688 158.472656 17.277344 153.476562 20.457031 150.21875 C 23.523438 147.078125 27.007812 144.761719 25.753906 141.402344 C 22.171875 131.785156 25.242188 114.398438 41.203125 109.222656 C 41.394531 107.5625 40.269531 107.214844 39.4375 106.578125 C 29.386719 109.574219 21.804688 118.507812 20.898438 129.941406 C 19.433594 130.492188 19.515625 129.292969 17.367188 129.5 C 10.148438 119.089844 2.660156 115.132812 3.242188 98.203125 C 10.410156 81.832031 31.59375 71.703125 44.734375 73.078125 C 45.078125 69.765625 42.613281 61.339844 44.734375 57.652344 C 37.390625 50.164062 44.089844 37.347656 50.472656 29.878906 C 51.035156 29.226562 52.742188 28.660156 53.5625 27.675781 C 55.410156 25.453125 61.441406 19.3125 65.039062 17.980469 C 65.9375 17.648438 67.558594 17.828125 68.128906 17.539062 C 78.128906 12.441406 92.207031 11.828125 102.117188 13.570312 C 104.308594 13.957031 106.585938 14.210938 107.414062 14.453125 C 110.039062 15.222656 114.613281 17.796875 115.359375 18.421875 C 116.140625 19.070312 115.71875 19.894531 116.242188 20.625 C 119.003906 24.472656 123.375 28.394531 125.511719 32.964844 C 142.417969 26.835938 154.824219 14.042969 176.273438 12.691406 C 176.667969 12.496094 177.0625 12.300781 177.15625 11.808594 C 184.699219 13.039062 195.484375 11.332031 204.523438 17.539062 C 205.984375 18.542969 207.164062 19.8125 208.9375 21.066406 C 214.707031 25.140625 219.789062 33.234375 223.0625 39.578125 C 225.613281 44.523438 228.109375 50.28125 229.242188 55.445312 C 229.882812 58.363281 231.96875 60.949219 232.332031 62.941406 C 232.453125 63.605469 231.734375 64.488281 231.890625 65.144531 C 232.242188 66.617188 233.363281 67.839844 233.65625 69.992188 C 234.445312 75.761719 234.222656 79.210938 235.421875 85.859375 Z M 114.035156 22.828125 C 110.214844 20.128906 105.816406 18.199219 101.234375 17.539062 C 86.925781 15.46875 74.632812 15.421875 63.714844 23.269531 C 63.203125 24.191406 63.921875 24.925781 62.390625 25.472656 C 61.328125 25.292969 61.429688 26.277344 60.183594 25.914062 C 54.449219 36.203125 45.0625 40.320312 46.058594 55.003906 C 51.085938 59.242188 55.832031 63.757812 61.507812 67.347656 C 56.789062 70.476562 52.652344 64.179688 48.707031 61.617188 C 45.953125 66.804688 47.902344 72.761719 51.355469 79.691406 C 57.617188 71.632812 70.972656 75.21875 76.515625 82.335938 C 77.625 81.238281 80.109375 81.515625 80.929688 80.132812 C 78.8125 71.699219 86.058594 63.960938 94.613281 65.585938 C 99.417969 66.496094 103.597656 70.902344 106.089844 72.636719 C 111.042969 65.859375 114.671875 59.902344 119.332031 53.242188 C 119.539062 51.714844 116.9375 52.988281 116.683594 51.921875 C 120.492188 48.3125 124.878906 47.601562 125.953125 41.78125 C 121.175781 35.625 118.496094 29.632812 114.035156 22.828125 Z M 129.484375 69.992188 C 136.453125 67.445312 138.976562 60.984375 141.402344 53.683594 C 142.746094 49.636719 142.847656 40.617188 137.871094 38.695312 C 129.421875 35.433594 123.386719 49.136719 124.628906 55.445312 C 123.035156 57.304688 119.839844 58.417969 118.007812 60.734375 C 116.378906 62.800781 115.023438 66.597656 113.152344 69.550781 C 111.011719 72.925781 108.140625 76.058594 107.855469 78.367188 C 107.542969 80.871094 109.152344 83.339844 108.738281 85.859375 C 108.316406 88.433594 106.503906 89.164062 106.53125 91.589844 C 101.128906 95.308594 96.980469 97.300781 91.523438 95.117188 C 86.761719 93.214844 84.4375 87.472656 79.605469 85.859375 C 78.179688 88.871094 79.992188 91.003906 80.488281 93.355469 C 81.554688 98.421875 79.875 102.25 83.136719 107.019531 C 87.976562 104.480469 87.027344 98.277344 91.082031 95.558594 C 91.210938 96.457031 92.277344 96.421875 92.40625 97.320312 C 91.804688 102.371094 88.484375 106.375 85.34375 110.105469 C 94.054688 116.6875 109.058594 118.042969 120.65625 111.867188 C 129.703125 102.929688 131.957031 87.777344 128.601562 73.078125 C 127.28125 72.484375 125.539062 72.316406 125.511719 70.433594 C 126.332031 68.574219 127.777344 69.585938 129.484375 69.992188 Z M 86.667969 71.757812 C 79.144531 80.957031 91.890625 97.484375 103 88.945312 C 108.261719 76.980469 93.976562 65.605469 86.667969 71.757812 Z M 56.652344 80.570312 C 56.101562 83.082031 54.550781 83.960938 54.445312 85.859375 C 54.433594 86.078125 55.3125 90.230469 55.328125 90.269531 C 58.652344 98.96875 75.257812 101.3125 74.75 90.710938 C 74.5625 86.785156 71.441406 85.34375 69.894531 81.894531 C 64.8125 79.800781 62.058594 79.214844 56.652344 80.570312 Z M 214.234375 92.472656 C 210.230469 91.355469 205.207031 89.5 202.316406 92.472656 C 196.550781 104.628906 188.324219 116.984375 176.273438 124.210938 C 173.371094 121.925781 175.605469 120.136719 174.949219 118.039062 C 172.292969 109.542969 157.773438 101.6875 151.996094 106.578125 C 156.792969 108.15625 162.351562 110.550781 166.121094 115.394531 C 171.230469 121.964844 168.4375 126.957031 161.265625 132.144531 C 159.898438 132.542969 158.835938 133.242188 157.734375 133.90625 C 158.121094 139.734375 153.351562 143.820312 148.023438 145.367188 C 143.347656 141.582031 139.605469 145.6875 134.339844 141.84375 C 130.164062 143.636719 126.066406 139.363281 125.511719 135.230469 C 119.082031 137.109375 110.773438 152.84375 103.882812 148.894531 C 102.589844 148.152344 102.5625 146.417969 103 144.488281 C 104.820312 136.417969 119.03125 122.355469 126.394531 120.242188 C 127.636719 119.320312 126.324219 118.585938 127.71875 118.039062 C 131.53125 115.96875 135.730469 114.285156 139.195312 111.867188 C 139.648438 106.996094 144.222656 104.921875 144.492188 99.964844 C 140.832031 98.621094 138.113281 97.148438 133.457031 97.320312 C 130.144531 104.378906 125.40625 113.234375 118.007812 117.15625 C 115.632812 118.417969 112.585938 118.453125 109.621094 118.921875 C 95.195312 121.207031 80.355469 114.175781 67.246094 103.050781 C 63.296875 103.414062 61.75 101.207031 57.535156 100.847656 C 56.859375 106.226562 52.761719 109.457031 52.679688 114.070312 C 58.078125 117.019531 69.421875 114.011719 67.246094 122.445312 C 61.828125 129.746094 53.023438 129.375 46.058594 124.210938 C 40.34375 130.472656 36.164062 140.710938 28.84375 145.367188 C 23.777344 153.679688 15.183594 158.46875 9.863281 166.527344 C 25.207031 172.695312 51.300781 167.65625 67.246094 166.085938 C 80.167969 167.289062 93.335938 167.488281 105.648438 176.222656 C 109.960938 165.878906 116.703125 155.863281 122.863281 143.605469 C 124.308594 143.230469 124.949219 140.386719 126.394531 141.402344 C 121.84375 153.90625 114.59375 162.347656 110.0625 174.019531 C 115.574219 170.664062 120.234375 167.1875 125.511719 166.085938 C 137.074219 163.671875 147.757812 167.921875 161.265625 171.375 C 175.730469 175.074219 190.804688 177.933594 204.523438 172.257812 C 205.328125 170.394531 205.734375 169.5625 205.847656 167.847656 C 206.714844 167.980469 206.722656 167.253906 207.171875 166.96875 C 207.425781 163 210.089844 160.699219 212.027344 156.828125 C 213.167969 154.550781 213.128906 151.804688 214.234375 149.335938 C 215.433594 146.652344 217.8125 144.289062 219.089844 141.402344 C 222.914062 132.746094 227.097656 124.3125 230.125 115.835938 C 230.636719 114.40625 232.152344 113.28125 232.773438 111.867188 C 233.03125 111.273438 232.550781 110.242188 232.773438 109.664062 C 233.363281 108.128906 235.085938 106.933594 235.863281 105.257812 C 238.636719 99.257812 241.835938 91.855469 244.25 86.742188 C 244.925781 86.636719 244.3125 86.015625 243.808594 85.859375 C 235.527344 90.714844 223.53125 90.8125 214.234375 92.472656 Z M 234.980469 110.546875 C 232.761719 118.859375 229.988281 119.609375 227.476562 128.617188 C 222.820312 138.59375 216.644531 148.683594 212.46875 159.472656 C 212.054688 160.539062 212.453125 161.859375 212.027344 163 C 210.757812 166.398438 207.878906 169.507812 207.171875 172.257812 C 206.339844 175.492188 207.421875 180.039062 208.9375 182.835938 C 211.375 174.175781 215.417969 170.070312 218.207031 161.238281 C 221.21875 156.710938 223.585938 152.21875 226.152344 147.132812 C 228.832031 141.820312 230.59375 135.058594 234.539062 130.820312 C 233.257812 135.675781 230.699219 140.828125 228.359375 144.925781 C 227.878906 145.765625 228.070312 147.785156 227.476562 149.335938 C 225.230469 155.195312 220.335938 161.941406 217.324219 168.730469 C 214.023438 176.167969 208.644531 183.503906 209.820312 189.007812 C 217.753906 173.140625 226.367188 154.117188 236.304688 137.875 C 237.667969 140.34375 234.820312 140.253906 234.980469 143.605469 C 233.003906 144.039062 233.773438 146.027344 233.214844 147.132812 C 226.703125 159.980469 220.636719 171.035156 213.792969 185.921875 C 211.21875 189.222656 210.746094 191 209.820312 196.058594 C 212.242188 193.214844 213.714844 189.734375 215.558594 185.921875 C 218.847656 179.125 222.640625 173.375 226.152344 166.527344 C 228.9375 161.09375 229.320312 153.28125 234.539062 149.777344 C 233.023438 154.210938 230.523438 158.167969 228.800781 162.117188 C 228.21875 163.457031 228.507812 165.152344 227.917969 166.527344 C 223.703125 176.308594 216.363281 184.886719 213.351562 196.058594 C 211.933594 197.578125 210.503906 200.421875 211.585938 201.789062 C 214.652344 198.933594 214.511719 194.933594 216.441406 191.210938 C 217.605469 188.964844 220.140625 187.269531 220.855469 185.480469 C 221.101562 184.867188 220.550781 183.855469 220.855469 183.277344 C 221.285156 182.457031 222.769531 182.039062 223.0625 181.074219 C 223.835938 178.507812 223.96875 177.378906 224.828125 175.78125 C 226.234375 173.164062 227.050781 170.625 228.359375 167.847656 C 233.613281 156.679688 238.179688 148.984375 244.691406 136.550781 C 246.609375 132.886719 249.402344 128.402344 249.988281 124.652344 C 243.632812 116.292969 245.214844 99.269531 243.808594 92.914062 C 240.210938 100.0625 239.628906 104.632812 234.980469 110.546875 Z M 71.660156 102.613281 C 74.035156 103.832031 76.734375 106.859375 79.164062 106.578125 C 78.21875 101.96875 79.5625 99.570312 77.398438 96 C 76.914062 99.632812 72.792969 99.628906 71.660156 102.613281 Z M 142.285156 110.546875 C 148.417969 107.453125 154.683594 102.5 156.410156 96.441406 C 148.925781 96.082031 143.738281 105.191406 142.285156 110.546875 Z M 166.121094 123.769531 C 166.132812 121.851562 166.585938 119.027344 165.679688 118.039062 C 161.414062 113.390625 154.675781 108.515625 149.347656 109.664062 C 146.292969 110.324219 141.730469 113.941406 139.195312 115.394531 C 134.046875 118.339844 129.292969 120.6875 125.070312 123.769531 C 121.796875 126.160156 118.515625 128.59375 116.683594 129.941406 C 114.121094 131.820312 110.96875 136.398438 109.621094 138.316406 C 110.285156 139.5625 111.566406 140.191406 111.828125 141.84375 C 110.5625 143.664062 108.097656 144.285156 106.972656 146.25 C 112.453125 144.0625 117.640625 138.820312 122.421875 134.789062 C 124.167969 133.316406 126.519531 131.050781 127.71875 129.5 C 129.585938 127.089844 130.652344 121.65625 134.78125 123.769531 C 129.597656 127.390625 125.660156 139.0625 133.457031 139.195312 C 132.902344 132.324219 135.925781 126.675781 140.519531 126.414062 C 136.65625 131.648438 132.414062 139.503906 140.960938 140.960938 C 141.253906 136.441406 141.453125 129.859375 147.140625 127.296875 C 147.257812 131.523438 141.996094 136.46875 143.609375 139.636719 C 146.503906 145.324219 155.503906 140.246094 155.527344 134.789062 C 152.757812 133.699219 151.777344 138.578125 148.90625 136.550781 C 153.074219 131.28125 161.53125 129.675781 166.121094 123.769531 Z M 38.113281 112.308594 C 35.75 113.761719 35.59375 116.664062 31.933594 117.597656 C 27.875 124.132812 25.160156 134.0625 29.285156 141.402344 C 35.867188 136.878906 32.851562 127.203125 39.4375 122.445312 C 44.960938 115.972656 57.335938 131.6875 63.714844 120.683594 C 61.15625 119.625 59.601562 122.117188 57.976562 122.445312 C 57.789062 121.605469 56.714844 121.648438 57.09375 120.242188 C 58.625 120.046875 61.414062 120.292969 62.390625 117.597656 C 52.089844 121.964844 48.308594 106.050781 38.113281 112.308594 Z M 37.671875 131.703125 C 38.292969 128.523438 43.886719 126.039062 42.085938 123.328125 C 39.707031 125.246094 35.488281 129.207031 37.671875 131.703125 Z M 106.53125 143.164062 C 108.402344 143.269531 109.144531 142.25 109.621094 140.960938 C 108.78125 140.773438 108.820312 139.699219 107.414062 140.078125 C 106.460938 141.355469 106.824219 141.21875 106.53125 143.164062 Z M 106.53125 143.164062 " fill-opacity="1" fill-rule="evenodd"/></g><path fill="#000000" d="M 73.425781 52.800781 C 68.957031 47.164062 71.375 38.3125 74.75 31.203125 C 77.335938 25.757812 81.726562 18.644531 87.109375 18.859375 C 87.621094 20.796875 85.691406 23.039062 83.578125 23.710938 C 78.140625 32.121094 72.824219 40.492188 73.425781 52.800781 Z M 73.425781 52.800781 " fill-opacity="1" fill-rule="evenodd"/><path fill="#000000" d="M 91.082031 20.625 C 90.847656 22.738281 90.113281 24.359375 87.992188 24.589844 C 83.148438 33.207031 77.292969 40.640625 77.398438 50.15625 C 77.421875 52.40625 80.179688 56.464844 76.957031 58.53125 C 71.734375 49.507812 75.976562 35.726562 81.8125 27.675781 C 84.285156 24.273438 87.9375 20.976562 91.082031 20.625 Z M 91.082031 20.625 " fill-opacity="1" fill-rule="evenodd"/><path fill="#000000" d="M 110.945312 33.40625 C 109.9375 36.007812 106.90625 38.605469 104.324219 40.902344 C 103.875 41.480469 103.890625 42.523438 103.441406 43.105469 C 99.191406 45.097656 98.199219 52.46875 93.730469 52.800781 C 95.421875 44.761719 103.6875 39.554688 108.296875 32.964844 C 109.382812 32.90625 110.425781 32.898438 110.945312 33.40625 Z M 110.945312 33.40625 " fill-opacity="1" fill-rule="evenodd"/><path fill="#000000" d="M 114.476562 34.730469 C 115.347656 35.035156 115.652344 35.90625 115.800781 36.933594 C 112.011719 39.464844 109.789062 43.566406 106.089844 46.191406 C 105.75 49.703125 103.085938 53.457031 100.792969 52.359375 C 102.488281 45.371094 108.738281 39.148438 114.476562 34.730469 Z M 114.476562 34.730469 " fill-opacity="1" fill-rule="evenodd"/><path fill="#000000" d="M 119.332031 38.253906 C 117.535156 41.015625 115.101562 43.140625 112.269531 44.867188 C 110.722656 46.699219 110.027344 49.390625 107.414062 50.15625 C 107.945312 44.488281 113.800781 40.390625 119.332031 38.253906 Z M 119.332031 38.253906 " fill-opacity="1" fill-rule="evenodd"/><path fill="#ffffff" d="M 125.511719 70.433594 C 125.539062 72.316406 127.28125 72.484375 128.601562 73.078125 C 131.957031 87.777344 129.703125 102.929688 120.65625 111.867188 C 109.058594 118.042969 94.054688 116.6875 85.34375 110.105469 C 88.484375 106.375 91.804688 102.371094 92.40625 97.320312 C 92.277344 96.421875 91.210938 96.457031 91.082031 95.558594 C 87.027344 98.277344 87.976562 104.480469 83.136719 107.019531 C 79.875 102.25 81.554688 98.421875 80.488281 93.355469 C 79.992188 91.003906 78.179688 88.871094 79.605469 85.859375 C 84.4375 87.472656 86.761719 93.214844 91.523438 95.117188 C 96.980469 97.300781 101.128906 95.308594 106.53125 91.589844 C 106.503906 89.164062 108.316406 88.433594 108.738281 85.859375 C 109.152344 83.339844 107.542969 80.871094 107.855469 78.367188 C 108.140625 76.058594 111.011719 72.925781 113.152344 69.550781 C 115.023438 66.597656 116.378906 62.800781 118.007812 60.734375 C 119.839844 58.417969 123.035156 57.304688 124.628906 55.445312 C 123.386719 49.136719 129.421875 35.433594 137.871094 38.695312 C 142.847656 40.617188 142.746094 49.636719 141.402344 53.683594 C 138.976562 60.984375 136.453125 67.445312 129.484375 69.992188 C 127.777344 69.585938 126.332031 68.574219 125.511719 70.433594 Z M 125.953125 56.328125 C 127.0625 56.980469 127.265625 58.542969 129.484375 58.089844 C 131.335938 56.851562 132.042969 54.476562 134.339844 53.683594 C 137.136719 57.472656 131.578125 59.445312 129.925781 61.617188 C 129.34375 61.464844 127.710938 60.90625 126.394531 60.296875 C 124.789062 63.082031 127.941406 64.515625 129.925781 65.144531 C 134.636719 62.109375 139.101562 57.269531 136.988281 51.480469 C 133.84375 49.757812 131.253906 52.8125 129.042969 54.566406 C 128.378906 49.257812 132.0625 44.8125 136.105469 41.78125 C 135.195312 41.664062 136 39.832031 134.78125 40.019531 C 129.335938 43.929688 126.261719 47.578125 125.953125 56.328125 Z M 99.46875 108.78125 C 100.71875 110.933594 103.796875 110.34375 104.324219 107.019531 C 103.039062 105.558594 100.324219 106.519531 99.46875 108.78125 Z M 99.46875 108.78125 " fill-opacity="1" fill-rule="evenodd"/><path fill="#000000" d="M 134.78125 40.019531 C 136 39.832031 135.195312 41.664062 136.105469 41.78125 C 132.0625 44.8125 128.378906 49.257812 129.042969 54.566406 C 131.253906 52.8125 133.84375 49.757812 136.988281 51.480469 C 139.101562 57.269531 134.636719 62.109375 129.925781 65.144531 C 127.941406 64.515625 124.789062 63.082031 126.394531 60.296875 C 127.710938 60.90625 129.34375 61.464844 129.925781 61.617188 C 131.578125 59.445312 137.136719 57.472656 134.339844 53.683594 C 132.042969 54.476562 131.335938 56.851562 129.484375 58.089844 C 127.265625 58.542969 127.0625 56.980469 125.953125 56.328125 C 126.261719 47.578125 129.335938 43.929688 134.78125 40.019531 Z M 134.78125 40.019531 " fill-opacity="1" fill-rule="evenodd"/><path fill="#000000" d="M 121.539062 40.902344 C 121.933594 41.09375 122.328125 41.289062 122.421875 41.78125 C 121.847656 43.707031 120.535156 44.894531 118.449219 45.308594 C 116.195312 47.800781 113.359375 51.925781 110.0625 51.921875 C 111.230469 47.332031 116.785156 43.375 121.539062 40.902344 Z M 121.539062 40.902344 " fill-opacity="1" fill-rule="evenodd"/><path fill="#000000" d="M 59.742188 46.628906 C 66.640625 50.175781 70.015625 57.238281 74.75 62.941406 C 73.753906 63.1875 75.285156 63.628906 74.308594 64.261719 C 68.628906 60.960938 63.0625 53.753906 59.742188 46.628906 Z M 59.742188 46.628906 " fill-opacity="1" fill-rule="evenodd"/><path fill="#000000" d="M 53.5625 48.835938 C 60.265625 53.78125 66.898438 58.902344 71.21875 65.144531 C 69.667969 66.78125 66.894531 64.207031 65.480469 62.941406 C 61.179688 59.085938 55.558594 52.882812 53.5625 48.835938 Z M 53.5625 48.835938 " fill-opacity="1" fill-rule="evenodd"/><path fill="#000000" d="M 50.914062 52.359375 L 52.238281 52.359375 C 55.203125 58.082031 63.546875 60.738281 65.480469 66.027344 C 58.605469 63.488281 53.886719 58.796875 50.914062 52.359375 Z M 50.914062 52.359375 " fill-opacity="1" fill-rule="evenodd"/><path fill="#ffffff" d="M 103 88.945312 C 91.890625 97.484375 79.144531 80.957031 86.667969 71.757812 C 93.976562 65.605469 108.261719 76.980469 103 88.945312 Z M 90.199219 86.742188 C 91.753906 87.59375 92.875 88.464844 94.171875 88.507812 C 95.03125 86.738281 94.355469 84.261719 90.640625 84.097656 C 90.132812 84.617188 90.140625 85.660156 90.199219 86.742188 Z M 90.199219 86.742188 " fill-opacity="1" fill-rule="evenodd"/><path fill="#ffffff" d="M 69.894531 81.894531 C 71.441406 85.34375 74.5625 86.785156 74.75 90.710938 C 75.257812 101.3125 58.652344 98.96875 55.328125 90.269531 C 55.3125 90.230469 54.433594 86.078125 54.445312 85.859375 C 54.550781 83.960938 56.101562 83.082031 56.652344 80.570312 C 62.058594 79.214844 64.8125 79.800781 69.894531 81.894531 Z M 71.660156 93.796875 C 72.234375 90.429688 69.867188 90.003906 67.6875 89.386719 C 66.25 91.925781 69.171875 95.117188 71.660156 93.796875 Z M 71.660156 93.796875 " fill-opacity="1" fill-rule="evenodd"/><path fill="#000000" d="M 90.640625 84.097656 C 94.355469 84.261719 95.03125 86.738281 94.171875 88.507812 C 92.875 88.464844 91.753906 87.59375 90.199219 86.742188 C 90.140625 85.660156 90.132812 84.617188 90.640625 84.097656 Z M 90.640625 84.097656 " fill-opacity="1" fill-rule="evenodd"/><path fill="#ffffff" d="M 243.808594 85.859375 C 244.3125 86.015625 244.925781 86.636719 244.25 86.742188 C 241.835938 91.855469 238.636719 99.257812 235.863281 105.257812 C 235.085938 106.933594 233.363281 108.128906 232.773438 109.664062 C 232.550781 110.242188 233.03125 111.273438 232.773438 111.867188 C 232.152344 113.28125 230.636719 114.40625 230.125 115.835938 C 227.097656 124.3125 222.914062 132.746094 219.089844 141.402344 C 217.8125 144.289062 215.433594 146.652344 214.234375 149.335938 C 213.128906 151.804688 213.167969 154.550781 212.027344 156.828125 C 210.089844 160.699219 207.425781 163 207.171875 166.96875 C 206.722656 167.253906 206.714844 167.980469 205.847656 167.847656 C 205.734375 169.5625 205.328125 170.394531 204.523438 172.257812 C 190.804688 177.933594 175.730469 175.074219 161.265625 171.375 C 147.757812 167.921875 137.074219 163.671875 125.511719 166.085938 C 120.234375 167.1875 115.574219 170.664062 110.0625 174.019531 C 114.59375 162.347656 121.84375 153.90625 126.394531 141.402344 C 124.949219 140.386719 124.308594 143.230469 122.863281 143.605469 C 116.703125 155.863281 109.960938 165.878906 105.648438 176.222656 C 93.335938 167.488281 80.167969 167.289062 67.246094 166.085938 C 51.300781 167.65625 25.207031 172.695312 9.863281 166.527344 C 15.183594 158.46875 23.777344 153.679688 28.84375 145.367188 C 36.164062 140.710938 40.34375 130.472656 46.058594 124.210938 C 53.023438 129.375 61.828125 129.746094 67.246094 122.445312 C 69.421875 114.011719 58.078125 117.019531 52.679688 114.070312 C 52.761719 109.457031 56.859375 106.226562 57.535156 100.847656 C 61.75 101.207031 63.296875 103.414062 67.246094 103.050781 C 80.355469 114.175781 95.195312 121.207031 109.621094 118.921875 C 112.585938 118.453125 115.632812 118.417969 118.007812 117.15625 C 125.40625 113.234375 130.144531 104.378906 133.457031 97.320312 C 138.113281 97.148438 140.832031 98.621094 144.492188 99.964844 C 144.222656 104.921875 139.648438 106.996094 139.195312 111.867188 C 135.730469 114.285156 131.53125 115.96875 127.71875 118.039062 C 126.324219 118.585938 127.636719 119.320312 126.394531 120.242188 C 119.03125 122.355469 104.820312 136.417969 103 144.488281 C 102.5625 146.417969 102.589844 148.152344 103.882812 148.894531 C 110.773438 152.84375 119.082031 137.109375 125.511719 135.230469 C 126.066406 139.363281 130.164062 143.636719 134.339844 141.84375 C 139.605469 145.6875 143.347656 141.582031 148.023438 145.367188 C 153.351562 143.820312 158.121094 139.734375 157.734375 133.90625 C 158.835938 133.242188 159.898438 132.542969 161.265625 132.144531 C 168.4375 126.957031 171.230469 121.964844 166.121094 115.394531 C 162.351562 110.550781 156.792969 108.15625 151.996094 106.578125 C 157.773438 101.6875 172.292969 109.542969 174.949219 118.039062 C 175.605469 120.136719 173.371094 121.925781 176.273438 124.210938 C 188.324219 116.984375 196.550781 104.628906 202.316406 92.472656 C 205.207031 89.5 210.230469 91.355469 214.234375 92.472656 C 223.53125 90.8125 235.527344 90.714844 243.808594 85.859375 Z M 243.808594 85.859375 " fill-opacity="1" fill-rule="evenodd"/><path fill="#000000" d="M 67.6875 89.386719 C 69.867188 90.003906 72.234375 90.429688 71.660156 93.796875 C 69.171875 95.117188 66.25 91.925781 67.6875 89.386719 Z M 67.6875 89.386719 " fill-opacity="1" fill-rule="evenodd"/><path fill="#ffffff" d="M 243.808594 92.914062 C 245.214844 99.269531 243.632812 116.292969 249.988281 124.652344 C 249.402344 128.402344 246.609375 132.886719 244.691406 136.550781 C 238.179688 148.984375 233.613281 156.679688 228.359375 167.847656 C 227.050781 170.625 226.234375 173.164062 224.828125 175.78125 C 223.96875 177.378906 223.835938 178.507812 223.0625 181.074219 C 222.769531 182.039062 221.285156 182.457031 220.855469 183.277344 C 220.550781 183.855469 221.101562 184.867188 220.855469 185.480469 C 220.140625 187.269531 217.605469 188.964844 216.441406 191.210938 C 214.511719 194.933594 214.652344 198.933594 211.585938 201.789062 C 210.503906 200.421875 211.933594 197.578125 213.351562 196.058594 C 216.363281 184.886719 223.703125 176.308594 227.917969 166.527344 C 228.507812 165.152344 228.21875 163.457031 228.800781 162.117188 C 230.523438 158.167969 233.023438 154.210938 234.539062 149.777344 C 229.320312 153.28125 228.9375 161.09375 226.152344 166.527344 C 222.640625 173.375 218.847656 179.125 215.558594 185.921875 C 213.714844 189.734375 212.242188 193.214844 209.820312 196.058594 C 210.746094 191 211.21875 189.222656 213.792969 185.921875 C 220.636719 171.035156 226.703125 159.980469 233.214844 147.132812 C 233.773438 146.027344 233.003906 144.039062 234.980469 143.605469 C 234.820312 140.253906 237.667969 140.34375 236.304688 137.875 C 226.367188 154.117188 217.753906 173.140625 209.820312 189.007812 C 208.644531 183.503906 214.023438 176.167969 217.324219 168.730469 C 220.335938 161.941406 225.230469 155.195312 227.476562 149.335938 C 228.070312 147.785156 227.878906 145.765625 228.359375 144.925781 C 230.699219 140.828125 233.257812 135.675781 234.539062 130.820312 C 230.59375 135.058594 228.832031 141.820312 226.152344 147.132812 C 223.585938 152.21875 221.21875 156.710938 218.207031 161.238281 C 215.417969 170.070312 211.375 174.175781 208.9375 182.835938 C 207.421875 180.039062 206.339844 175.492188 207.171875 172.257812 C 207.878906 169.507812 210.757812 166.398438 212.027344 163 C 212.453125 161.859375 212.054688 160.539062 212.46875 159.472656 C 216.644531 148.683594 222.820312 138.59375 227.476562 128.617188 C 229.988281 119.609375 232.761719 118.859375 234.980469 110.546875 C 239.628906 104.632812 240.210938 100.0625 243.808594 92.914062 Z M 233.65625 121.566406 C 230.238281 124.796875 229.738281 129.535156 227.917969 133.46875 C 224.554688 140.730469 220.089844 148.726562 217.324219 155.507812 C 216.652344 157.148438 214.972656 158.273438 214.234375 159.914062 C 211.984375 164.917969 210.410156 170.238281 209.378906 174.902344 C 220.320312 156.089844 229.550781 131.910156 238.511719 114.511719 C 235.113281 115.085938 234.667969 118.609375 233.65625 121.566406 Z M 233.65625 121.566406 " fill-opacity="1" fill-rule="evenodd"/><path fill="#ffffff" d="M 77.398438 96 C 79.5625 99.570312 78.21875 101.96875 79.164062 106.578125 C 76.734375 106.859375 74.035156 103.832031 71.660156 102.613281 C 72.792969 99.628906 76.914062 99.632812 77.398438 96 Z M 77.398438 96 " fill-opacity="1" fill-rule="evenodd"/><path fill="#ffffff" d="M 156.410156 96.441406 C 154.683594 102.5 148.417969 107.453125 142.285156 110.546875 C 143.738281 105.191406 148.925781 96.082031 156.410156 96.441406 Z M 156.410156 96.441406 " fill-opacity="1" fill-rule="evenodd"/><path fill="#000000" d="M 104.324219 107.019531 C 103.796875 110.34375 100.71875 110.933594 99.46875 108.78125 C 100.324219 106.519531 103.039062 105.558594 104.324219 107.019531 Z M 104.324219 107.019531 " fill-opacity="1" fill-rule="evenodd"/><path fill="#ffffff" d="M 148.90625 136.550781 C 151.777344 138.578125 152.757812 133.699219 155.527344 134.789062 C 155.503906 140.246094 146.503906 145.324219 143.609375 139.636719 C 141.996094 136.46875 147.257812 131.523438 147.140625 127.296875 C 141.453125 129.859375 141.253906 136.441406 140.960938 140.960938 C 132.414062 139.503906 136.65625 131.648438 140.519531 126.414062 C 135.925781 126.675781 132.902344 132.324219 133.457031 139.195312 C 125.660156 139.0625 129.597656 127.390625 134.78125 123.769531 C 130.652344 121.65625 129.585938 127.089844 127.71875 129.5 C 126.519531 131.050781 124.167969 133.316406 122.421875 134.789062 C 117.640625 138.820312 112.453125 144.0625 106.972656 146.25 C 108.097656 144.285156 110.5625 143.664062 111.828125 141.84375 C 111.566406 140.191406 110.285156 139.5625 109.621094 138.316406 C 110.96875 136.398438 114.121094 131.820312 116.683594 129.941406 C 118.515625 128.59375 121.796875 126.160156 125.070312 123.769531 C 129.292969 120.6875 134.046875 118.339844 139.195312 115.394531 C 141.730469 113.941406 146.292969 110.324219 149.347656 109.664062 C 154.675781 108.515625 161.414062 113.390625 165.679688 118.039062 C 166.585938 119.027344 166.132812 121.851562 166.121094 123.769531 C 161.53125 129.675781 153.074219 131.28125 148.90625 136.550781 Z M 148.90625 136.550781 " fill-opacity="1" fill-rule="evenodd"/><path fill="#ffffff" d="M 62.390625 117.597656 C 61.414062 120.292969 58.625 120.046875 57.09375 120.242188 C 56.714844 121.648438 57.789062 121.605469 57.976562 122.445312 C 59.601562 122.117188 61.15625 119.625 63.714844 120.683594 C 57.335938 131.6875 44.960938 115.972656 39.4375 122.445312 C 32.851562 127.203125 35.867188 136.878906 29.285156 141.402344 C 25.160156 134.0625 27.875 124.132812 31.933594 117.597656 C 35.59375 116.664062 35.75 113.761719 38.113281 112.308594 C 48.308594 106.050781 52.089844 121.964844 62.390625 117.597656 Z M 62.390625 117.597656 " fill-opacity="1" fill-rule="evenodd"/><path fill="#000000" d="M 238.511719 114.511719 C 229.550781 131.910156 220.320312 156.089844 209.378906 174.902344 C 210.410156 170.238281 211.984375 164.917969 214.234375 159.914062 C 214.972656 158.273438 216.652344 157.148438 217.324219 155.507812 C 220.089844 148.726562 224.554688 140.730469 227.917969 133.46875 C 229.738281 129.535156 230.238281 124.796875 233.65625 121.566406 C 234.667969 118.609375 235.113281 115.085938 238.511719 114.511719 Z M 238.511719 114.511719 " fill-opacity="1" fill-rule="evenodd"/><path fill="#ffffff" d="M 42.085938 123.328125 C 43.886719 126.039062 38.292969 128.523438 37.671875 131.703125 C 35.488281 129.207031 39.707031 125.246094 42.085938 123.328125 Z M 42.085938 123.328125 " fill-opacity="1" fill-rule="evenodd"/><path fill="#ffffff" d="M 107.414062 140.078125 C 108.820312 139.699219 108.78125 140.773438 109.621094 140.960938 C 109.144531 142.25 108.402344 143.269531 106.53125 143.164062 C 106.824219 141.21875 106.460938 141.355469 107.414062 140.078125 Z M 107.414062 140.078125 " fill-opacity="1" fill-rule="evenodd"/><path fill="#000000" d="M 183.335938 183.277344 C 180.339844 185.445312 175.429688 184.652344 171.859375 184.597656 C 151.804688 184.285156 135.609375 173.53125 116.242188 182.394531 C 118.660156 178.582031 124.144531 177.511719 127.277344 177.105469 C 141.535156 175.25 155.5625 180.839844 169.210938 181.511719 C 171.773438 181.640625 173.859375 182.394531 176.273438 182.835938 C 178.511719 183.246094 181.421875 181.148438 183.335938 183.277344 Z M 183.335938 183.277344 " fill-opacity="1" fill-rule="evenodd"/><path fill="#000000" d="M 163.472656 192.09375 C 147.933594 189.824219 132.441406 186.378906 115.800781 190.328125 C 119.214844 185.503906 124.984375 187.183594 128.601562 185.480469 C 139.5 186.128906 153.425781 186.140625 163.472656 192.09375 Z M 163.472656 192.09375 " fill-opacity="1" fill-rule="evenodd"/><path fill="#ffffff" d="M 125.953125 41.78125 C 124.878906 47.601562 120.492188 48.3125 116.683594 51.921875 C 116.9375 52.988281 119.539062 51.714844 119.332031 53.242188 C 114.671875 59.902344 111.042969 65.859375 106.089844 72.636719 C 103.597656 70.902344 99.417969 66.496094 94.613281 65.585938 C 86.058594 63.960938 78.8125 71.699219 80.929688 80.132812 C 80.109375 81.515625 77.625 81.238281 76.515625 82.335938 C 70.972656 75.21875 57.617188 71.632812 51.355469 79.691406 C 47.902344 72.761719 45.953125 66.804688 48.707031 61.617188 C 52.652344 64.179688 56.789062 70.476562 61.507812 67.347656 C 55.832031 63.757812 51.085938 59.242188 46.058594 55.003906 C 45.0625 40.320312 54.449219 36.203125 60.183594 25.914062 C 61.429688 26.277344 61.328125 25.292969 62.390625 25.472656 C 63.921875 24.925781 63.203125 24.191406 63.714844 23.269531 C 74.632812 15.421875 86.925781 15.46875 101.234375 17.539062 C 105.816406 18.199219 110.214844 20.128906 114.035156 22.828125 C 118.496094 29.632812 121.175781 35.625 125.953125 41.78125 Z M 81.8125 27.675781 C 75.976562 35.726562 71.734375 49.507812 76.957031 58.53125 C 80.179688 56.464844 77.421875 52.40625 77.398438 50.15625 C 77.292969 40.640625 83.148438 33.207031 87.992188 24.589844 C 90.113281 24.359375 90.847656 22.738281 91.082031 20.625 C 87.9375 20.976562 84.285156 24.273438 81.8125 27.675781 Z M 83.578125 23.710938 C 85.691406 23.039062 87.621094 20.796875 87.109375 18.859375 C 81.726562 18.644531 77.335938 25.757812 74.75 31.203125 C 71.375 38.3125 68.957031 47.164062 73.425781 52.800781 C 72.824219 40.492188 78.140625 32.121094 83.578125 23.710938 Z M 108.296875 32.964844 C 103.6875 39.554688 95.421875 44.761719 93.730469 52.800781 C 98.199219 52.46875 99.191406 45.097656 103.441406 43.105469 C 103.890625 42.523438 103.875 41.480469 104.324219 40.902344 C 106.90625 38.605469 109.9375 36.007812 110.945312 33.40625 C 110.425781 32.898438 109.382812 32.90625 108.296875 32.964844 Z M 100.792969 52.359375 C 103.085938 53.457031 105.75 49.703125 106.089844 46.191406 C 109.789062 43.566406 112.011719 39.464844 115.800781 36.933594 C 115.652344 35.90625 115.347656 35.035156 114.476562 34.730469 C 108.738281 39.148438 102.488281 45.371094 100.792969 52.359375 Z M 107.414062 50.15625 C 110.027344 49.390625 110.722656 46.699219 112.269531 44.867188 C 115.101562 43.140625 117.535156 41.015625 119.332031 38.253906 C 113.800781 40.390625 107.945312 44.488281 107.414062 50.15625 Z M 110.0625 51.921875 C 113.359375 51.925781 116.195312 47.800781 118.449219 45.308594 C 120.535156 44.894531 121.847656 43.707031 122.421875 41.78125 C 122.328125 41.289062 121.933594 41.09375 121.539062 40.902344 C 116.785156 43.375 111.230469 47.332031 110.0625 51.921875 Z M 74.308594 64.261719 C 75.285156 63.628906 73.753906 63.1875 74.75 62.941406 C 70.015625 57.238281 66.640625 50.175781 59.742188 46.628906 C 63.0625 53.753906 68.628906 60.960938 74.308594 64.261719 Z M 65.480469 62.941406 C 66.894531 64.207031 69.667969 66.78125 71.21875 65.144531 C 66.898438 58.902344 60.265625 53.78125 53.5625 48.835938 C 55.558594 52.882812 61.179688 59.085938 65.480469 62.941406 Z M 65.480469 66.027344 C 63.546875 60.738281 55.203125 58.082031 52.238281 52.359375 L 50.914062 52.359375 C 53.886719 58.796875 58.605469 63.488281 65.480469 66.027344 Z M 65.480469 66.027344 " fill-opacity="1" fill-rule="evenodd"/></svg>